<?xml version="1.0" encoding="us-ascii" standalone="no"?><svg xmlns="http://www.w3.org/2000/svg" xmlns:xlink="http://www.w3.org/1999/xlink" contentStyleType="text/css" height="952px" preserveAspectRatio="none" style="width:769px;height:952px;background:#FFFFFF;" version="1.1" viewBox="0 0 769 952" width="769px" zoomAndPan="magnify"><defs/><g><text fill="#000000" font-family="Arial" font-size="22" font-weight="bold" lengthAdjust="spacing" textLength="421" x="169.5" y="35.6357">Architecture Globale - MobilitySoft CI/CD</text><!--cluster cicd--><g id="cluster_cicd"><rect fill="#2088FF" height="125.6" rx="2.5" ry="2.5" style="stroke:#0366D6;stroke-width:1.0;" width="495" x="12" y="191.4979"/><text fill="#FFFFFF" font-family="Arial" font-size="12" font-style="italic" lengthAdjust="spacing" textLength="36" x="241.5" y="204.7537">&#171;cicd&#187;</text><text fill="#FFFFFF" font-family="Arial" font-size="12" font-weight="bold" lengthAdjust="spacing" textLength="130" x="194.5" y="218.5525">GitHub Actions (CI/CD)</text></g><!--cluster dockerhub--><g id="cluster_dockerhub"><rect fill="#2496ED" height="121.79" rx="2.5" ry="2.5" style="stroke:#0DB7ED;stroke-width:1.0;" width="398" x="109" y="380.0979"/><text fill="#FFFFFF" font-family="Arial" font-size="12" font-style="italic" lengthAdjust="spacing" textLength="51" x="282.5" y="393.3537">&#171;docker&#187;</text><text fill="#FFFFFF" font-family="Arial" font-size="12" font-weight="bold" lengthAdjust="spacing" textLength="117" x="249.5" y="407.1525">DockerHub Registry</text></g><!--cluster runtime--><g id="cluster_runtime"><rect fill="#00D084" height="381.2" rx="2.5" ry="2.5" style="stroke:#00A86B;stroke-width:1.0;" width="208" x="299" y="564.8879"/><text fill="#FFFFFF" font-family="Arial" font-size="12" font-style="italic" lengthAdjust="spacing" textLength="55" x="375.5" y="578.1437">&#171;runtime&#187;</text><text fill="#FFFFFF" font-family="Arial" font-size="12" font-weight="bold" lengthAdjust="spacing" textLength="157" x="324.5" y="591.9425">Environnement d'Ex&#233;cution</text></g><!--cluster app_container--><g id="cluster_app_container"><rect fill="#FFA500" height="119.6" rx="2.5" ry="2.5" style="stroke:#FF8C00;stroke-width:1.0;" width="136" x="331" y="626.8879"/><text fill="#000000" font-family="Arial" font-size="12" font-style="italic" lengthAdjust="spacing" textLength="53" x="372.5" y="640.1437">&#171;service&#187;</text><text fill="#000000" font-family="Arial" font-size="12" font-weight="bold" lengthAdjust="spacing" textLength="82" x="358" y="653.9425">Container App</text></g><!--cluster db_container--><g id="cluster_db_container"><rect fill="#FFA500" height="104.8" rx="2.5" ry="2.5" style="stroke:#FF8C00;stroke-width:1.0;" width="136" x="331" y="809.2879"/><text fill="#000000" font-family="Arial" font-size="12" font-style="italic" lengthAdjust="spacing" textLength="53" x="372.5" y="822.5437">&#171;service&#187;</text><text fill="#000000" font-family="Arial" font-size="12" font-weight="bold" lengthAdjust="spacing" textLength="77" x="360.5" y="836.3425">Container DB</text></g><!--entity github--><g id="elem_github"><rect fill="#24292E" height="61.3965" rx="2.5" ry="2.5" style="stroke:#000000;stroke-width:1.0;" width="120" x="439" y="59.1979"/><text fill="#FFFFFF" font-family="Arial" font-size="12" font-style="italic" lengthAdjust="spacing" textLength="48" x="475" y="80.4537">&#171;github&#187;</text><text fill="#FFFFFF" font-family="Arial" font-size="12" lengthAdjust="spacing" textLength="100" x="449" y="94.2525">GitHub Repository</text><text fill="#FFFFFF" font-family="Arial" font-size="12" lengthAdjust="spacing" textLength="93" x="449" y="108.0514">mobilitysoft-eq01</text></g><!--entity tests--><g id="elem_tests"><rect fill="#FFFFFF" height="47.5977" rx="2.5" ry="2.5" style="stroke:#000000;stroke-width:1.0;" width="53" x="35.5" y="245.4979"/><text fill="#000000" font-family="Arial" font-size="12" lengthAdjust="spacing" textLength="33" x="45.5" y="266.7537">Job 1:</text><text fill="#000000" font-family="Arial" font-size="12" lengthAdjust="spacing" textLength="29" x="45.5" y="280.5525">Tests</text></g><!--entity build--><g id="elem_build"><rect fill="#FFFFFF" height="47.5977" rx="2.5" ry="2.5" style="stroke:#000000;stroke-width:1.0;" width="90" x="192" y="245.4979"/><text fill="#000000" font-family="Arial" font-size="12" lengthAdjust="spacing" textLength="33" x="202" y="266.7537">Job 2:</text><text fill="#000000" font-family="Arial" font-size="12" lengthAdjust="spacing" textLength="70" x="202" y="280.5525">Build Docker</text></g><!--entity metrics--><g id="elem_metrics"><rect fill="#FFFFFF" height="47.5977" rx="2.5" ry="2.5" style="stroke:#000000;stroke-width:1.0;" width="74" x="390" y="245.4979"/><text fill="#000000" font-family="Arial" font-size="12" lengthAdjust="spacing" textLength="33" x="400" y="266.7537">Job 3:</text><text fill="#000000" font-family="Arial" font-size="12" lengthAdjust="spacing" textLength="54" x="400" y="280.5525">M&#233;triques</text></g><!--entity image_latest--><g id="elem_image_latest"><rect fill="#FFFFFF" height="43.7988" rx="2.5" ry="2.5" style="stroke:#000000;stroke-width:1.0;" width="133" x="132.5" y="434.0979"/><rect fill="#FFFFFF" height="10" style="stroke:#000000;stroke-width:1.0;" width="15" x="245.5" y="439.0979"/><rect fill="#FFFFFF" height="2" style="stroke:#000000;stroke-width:1.0;" width="4" x="243.5" y="441.0979"/><rect fill="#FFFFFF" height="2" style="stroke:#000000;stroke-width:1.0;" width="4" x="243.5" y="445.0979"/><text fill="#000000" font-family="Arial" font-size="12" lengthAdjust="spacing" textLength="93" x="147.5" y="465.3537">mobilitysoft:latest</text></g><!--entity image_sha--><g id="elem_image_sha"><rect fill="#FFFFFF" height="43.7988" rx="2.5" ry="2.5" style="stroke:#000000;stroke-width:1.0;" width="163" x="300.5" y="434.0979"/><rect fill="#FFFFFF" height="10" style="stroke:#000000;stroke-width:1.0;" width="15" x="443.5" y="439.0979"/><rect fill="#FFFFFF" height="2" style="stroke:#000000;stroke-width:1.0;" width="4" x="441.5" y="441.0979"/><rect fill="#FFFFFF" height="2" style="stroke:#000000;stroke-width:1.0;" width="4" x="441.5" y="445.0979"/><text fill="#000000" font-family="Arial" font-size="12" lengthAdjust="spacing" textLength="123" x="315.5" y="465.3537">mobilitysoft:main-{sha}</text></g><!--entity app--><g id="elem_app"><rect fill="#FFFFFF" height="57.5977" rx="2.5" ry="2.5" style="stroke:#000000;stroke-width:1.0;" width="103" x="347.5" y="672.8879"/><rect fill="#FFFFFF" height="10" style="stroke:#000000;stroke-width:1.0;" width="15" x="430.5" y="677.8879"/><rect fill="#FFFFFF" height="2" style="stroke:#000000;stroke-width:1.0;" width="4" x="428.5" y="679.8879"/><rect fill="#FFFFFF" height="2" style="stroke:#000000;stroke-width:1.0;" width="4" x="428.5" y="683.8879"/><text fill="#000000" font-family="Arial" font-size="12" lengthAdjust="spacing" textLength="63" x="362.5" y="704.1437">MobilitySoft</text><text fill="#000000" font-family="Arial" font-size="12" lengthAdjust="spacing" textLength="42" x="362.5" y="717.9425">FastAPI</text></g><!--entity postgres--><g id="elem_postgres"><path d="M347.5,865.2879 C347.5,855.2879 399,855.2879 399,855.2879 C399,855.2879 450.5,855.2879 450.5,865.2879 L450.5,888.0867 C450.5,898.0867 399,898.0867 399,898.0867 C399,898.0867 347.5,898.0867 347.5,888.0867 L347.5,865.2879 " fill="#FFFFFF" style="stroke:#000000;stroke-width:1.0;"/><path d="M347.5,865.2879 C347.5,875.2879 399,875.2879 399,875.2879 C399,875.2879 450.5,875.2879 450.5,865.2879 " fill="none" style="stroke:#000000;stroke-width:1.0;"/><text fill="#000000" font-family="Arial" font-size="12" lengthAdjust="spacing" textLength="83" x="357.5" y="890.5437">PostgreSQL 15</text></g><g id="elem_GMN21"><path d="M594,57.2979 L594,85.8979 L559.48,89.8979 L594,93.8979 L594,122.4932 A0,0 0 0 0 594,122.4932 L762,122.4932 A0,0 0 0 0 762,122.4932 L762,67.2979 L752,57.2979 L594,57.2979 A0,0 0 0 0 594,57.2979 " fill="#FFFFFF" style="stroke:#000000;stroke-width:1.0;"/><path d="M752,57.2979 L752,67.2979 L762,67.2979 L752,57.2979 " fill="#FFFFFF" style="stroke:#000000;stroke-width:1.0;"/><text fill="#000000" font-family="Arial" font-size="12" lengthAdjust="spacing" textLength="118" x="600" y="73.5537">&#8226; Code source Python</text><text fill="#000000" font-family="Arial" font-size="12" lengthAdjust="spacing" textLength="147" x="600" y="87.3525">&#8226; Workflows GitHub Actions</text><text fill="#000000" font-family="Arial" font-size="12" lengthAdjust="spacing" textLength="105" x="600" y="101.1514">&#8226; Pre-commit hooks</text><text fill="#000000" font-family="Arial" font-size="12" lengthAdjust="spacing" textLength="89" x="600" y="114.9502">&#8226; Tests (25 tests)</text></g><g id="elem_GMN24"><path d="M534.5,229.7979 L534.5,308.792 L681.5,308.792 L681.5,239.7979 L671.5,229.7979 L534.5,229.7979 " fill="#FFFFFF" style="stroke:#000000;stroke-width:1.0;"/><path d="M671.5,229.7979 L671.5,239.7979 L681.5,239.7979 L671.5,229.7979 " fill="#FFFFFF" style="stroke:#000000;stroke-width:1.0;"/><text fill="#000000" font-family="Arial" font-size="12" lengthAdjust="spacing" textLength="111" x="540.5" y="246.0537">&#8226; Tests unitaires (11)</text><text fill="#000000" font-family="Arial" font-size="12" lengthAdjust="spacing" textLength="122" x="540.5" y="259.8525">&#8226; Tests int&#233;gration (14)</text><text fill="#000000" font-family="Arial" font-size="12" lengthAdjust="spacing" textLength="114" x="540.5" y="273.6514">&#8226; Build image Docker</text><text fill="#000000" font-family="Arial" font-size="12" lengthAdjust="spacing" textLength="126" x="540.5" y="287.4502">&#8226; Push vers DockerHub</text><text fill="#000000" font-family="Arial" font-size="12" lengthAdjust="spacing" textLength="109" x="540.5" y="301.249">&#8226; Collecte m&#233;triques</text></g><g id="elem_GMN27"><path d="M534.5,423.3979 L534.5,488.5932 L673.5,488.5932 L673.5,433.3979 L663.5,423.3979 L534.5,423.3979 " fill="#FFFFFF" style="stroke:#000000;stroke-width:1.0;"/><path d="M663.5,423.3979 L663.5,433.3979 L673.5,433.3979 L663.5,423.3979 " fill="#FFFFFF" style="stroke:#000000;stroke-width:1.0;"/><text fill="#000000" font-family="Arial" font-size="12" lengthAdjust="spacing" textLength="118" x="540.5" y="439.6537">&#8226; Registry public/priv&#233;</text><text fill="#000000" font-family="Arial" font-size="12" lengthAdjust="spacing" textLength="111" x="540.5" y="453.4525">&#8226; Tags automatiques</text><text fill="#000000" font-family="Arial" font-size="12" lengthAdjust="spacing" textLength="66" x="540.5" y="467.2514">&#8226; Versioning</text><text fill="#000000" font-family="Arial" font-size="12" lengthAdjust="spacing" textLength="79" x="540.5" y="481.0502">&#8226; Cache layers</text></g><g id="elem_GMN30"><path d="M534.5,669.0979 L534.5,734.2932 L675.5,734.2932 L675.5,679.0979 L665.5,669.0979 L534.5,669.0979 " fill="#FFFFFF" style="stroke:#000000;stroke-width:1.0;"/><path d="M665.5,669.0979 L665.5,679.0979 L675.5,679.0979 L665.5,669.0979 " fill="#FFFFFF" style="stroke:#000000;stroke-width:1.0;"/><text fill="#000000" font-family="Arial" font-size="12" lengthAdjust="spacing" textLength="120" x="540.5" y="685.3537">&#8226; docker-compose.yml</text><text fill="#000000" font-family="Arial" font-size="12" lengthAdjust="spacing" textLength="117" x="540.5" y="699.1525">&#8226; Volumes persistants</text><text fill="#000000" font-family="Arial" font-size="12" lengthAdjust="spacing" textLength="92" x="540.5" y="712.9514">&#8226; R&#233;seau Docker</text><text fill="#000000" font-family="Arial" font-size="12" lengthAdjust="spacing" textLength="84" x="540.5" y="726.7502">&#8226; Health checks</text></g><!--link tests to build--><g id="link_tests_build"><path d="M88.96,269.2979 C116.29,269.2979 153.06,269.2979 185.62,269.2979 " fill="none" id="tests-to-build" style="stroke:#000000;stroke-width:1.0;"/><polygon fill="#000000" points="191.62,269.2979,182.62,265.2979,186.62,269.2979,182.62,273.2979,191.62,269.2979" style="stroke:#000000;stroke-width:1.0;"/><text fill="#000000" font-family="Arial" font-size="12" lengthAdjust="spacing" textLength="67" x="106.75" y="263.5537">tests r&#233;ussis</text></g><!--link build to metrics--><g id="link_build_metrics"><path d="M282.03,269.2979 C314.84,269.2979 352.77,269.2979 383.64,269.2979 " fill="none" id="build-to-metrics" style="stroke:#000000;stroke-width:1.0;"/><polygon fill="#000000" points="389.64,269.2979,380.64,265.2979,384.64,269.2979,380.64,273.2979,389.64,269.2979" style="stroke:#000000;stroke-width:1.0;"/><text fill="#000000" font-family="Arial" font-size="12" lengthAdjust="spacing" textLength="71" x="300.5" y="263.5537">build termin&#233;</text></g><!--link app to postgres--><g id="link_app_postgres"><path d="M399,730.8679 C399,765.6279 399,817.8979 399,848.8679 " fill="none" id="app-to-postgres" style="stroke:#000000;stroke-width:1.0;"/><polygon fill="#000000" points="399,854.8679,403,845.8679,399,849.8679,395,845.8679,399,854.8679" style="stroke:#000000;stroke-width:1.0;"/><text fill="#000000" font-family="Arial" font-size="12" lengthAdjust="spacing" textLength="57" x="400" y="776.5437">connexion</text><text fill="#000000" font-family="Arial" font-size="12" lengthAdjust="spacing" textLength="24" x="416.5" y="790.3425">SQL</text></g><!--link github to cicd--><g id="link_github_cicd"><path d="M499,120.9879 C499,133.4429 499,148.6891 499,164.5985 C499,172.5532 499,180.6736 499,188.6939 C499,189.1951 499,189.696 499,190.1964 C499,190.4466 499,184.6967 499,184.9467 " fill="none" id="github-to-cicd" style="stroke:#000000;stroke-width:1.0;"/><polygon fill="#000000" points="499,190.9467,503,181.9467,499,185.9467,495,181.9467,499,190.9467" style="stroke:#000000;stroke-width:1.0;"/><text fill="#000000" font-family="Arial" font-size="12" lengthAdjust="spacing" textLength="107" x="500" y="164.7537">Push / Pull Request</text></g><!--link cicd to dockerhub--><g id="link_cicd_dockerhub"><path d="M499,317.3101 C499,317.6191 499,317.9291 499,318.2399 C499,319.4832 499,320.7406 499,322.0108 C499,324.5512 499,327.1428 499,329.7755 C499,340.306 499,351.4922 499,362.6779 C499,368.2707 499,373.8633 499,379.3738 C499,379.546 499,373.7181 499,373.8901 " fill="none" id="cicd-to-dockerhub" style="stroke:#000000;stroke-width:1.0;"/><polygon fill="#000000" points="499,379.8901,503,370.8901,499,374.8901,495,370.8901,499,379.8901" style="stroke:#000000;stroke-width:1.0;"/><text fill="#000000" font-family="Arial" font-size="12" lengthAdjust="spacing" textLength="65" x="500" y="353.3537">Push Image</text></g><!--link dockerhub to runtime--><g id="link_dockerhub_runtime"><path d="M499,502.7292 C499,503.4799 499,504.2371 499,505.0004 C499,508.0538 499,511.2065 499,514.4444 C499,520.92 499,527.7362 499,534.7794 C499,541.8226 499,549.0927 499,556.4764 C499,558.3223 499,560.1753 499,562.0336 C499,562.9627 499,557.8932 499,558.8248 " fill="none" id="dockerhub-to-runtime" style="stroke:#000000;stroke-width:1.0;"/><polygon fill="#000000" points="499,564.8248,503,555.8248,499,559.8248,495,555.8248,499,564.8248" style="stroke:#000000;stroke-width:1.0;"/><text fill="#000000" font-family="Arial" font-size="12" lengthAdjust="spacing" textLength="74" x="500" y="538.1437">Pull &amp; Deploy</text></g><!--link cicd to GMN24--><g id="link_cicd_GMN24"><path d="M507.0692,269.2979 C507.1584,269.2979 507.2475,269.2979 507.3366,269.2979 C507.693,269.2979 508.0495,269.2979 508.4059,269.2979 C511.2575,269.2979 514.1088,269.2979 516.96,269.2979 C522.6625,269.2979 528.365,269.2979 534.07,269.2979 " fill="none" id="cicd-GMN24" style="stroke:#000000;stroke-width:1.0;stroke-dasharray:7.0,7.0;"/></g><!--link dockerhub to GMN27--><g id="link_dockerhub_GMN27"><path d="M507.0289,455.9979 C507.1179,455.9979 507.2069,455.9979 507.2959,455.9979 C507.652,455.9979 508.008,455.9979 508.3641,455.9979 C511.2125,455.9979 514.0613,455.9979 516.91,455.9979 C522.6075,455.9979 528.305,455.9979 534,455.9979 " fill="none" id="dockerhub-GMN27" style="stroke:#000000;stroke-width:1.0;stroke-dasharray:7.0,7.0;"/></g><!--link runtime to GMN30--><g id="link_runtime_GMN30"><path d="M507.1074,701.6879 C507.1973,701.6879 507.2871,701.6879 507.377,701.6879 C507.7364,701.6879 508.0958,701.6879 508.4552,701.6879 C511.3303,701.6879 514.2056,701.6879 517.0813,701.6879 C522.8325,701.6879 528.585,701.6879 534.34,701.6879 " fill="none" id="runtime-GMN30" style="stroke:#000000;stroke-width:1.0;stroke-dasharray:7.0,7.0;"/></g><!--SRC=[XLNRRXit47tVhvWgG6C_g9OKMrMCm80kTkAY2HIxQ5yC1DnTQaM8IsvuKQmQ1lejVTDtw4_w9HcIkzAkfDHwaZXdvXpEdA5-CdEQKoWuOIBI2oOAeaWECKaMcP9Mf6F9fO9ND_vJGwHqHYmtDrAOJmGh31KZ_7ZydlrDeTkB8iCCTyXapWnDZ5KKtdCP4pnimqSPCyxCwbxE38nlpyQJA7eDayrwnWGpJ0eigI6HbbEhT8r9OIaYCYpo505-HatjxzvbpCnjV7K5hthdlRUzwu2IAgNg0D7n7uzmqW_YPHzS_3XPmfBKKtK6WnBOeAhYdJVz_gI_JrH5NwH9PRAWAjpfRVzwSaYqGtGcerzBH8rg5t-HJ5bXM4v3VoQTmVaXMmCo7FH7-tGrm8jycgebIqhiyAASHuEl0HcC4VBixFAUcGysXZjQICsCLAjevuxMGV11vANfD9gkJRzskYqW6iAueJRtfqRvOUByg67A2igPe4T8AiY9T_AfB-k62ziP1xFMCd-JCNGl7yGVL1lj4upxTWpMGzZ8Cfx2n4_HesDtS0pz1j4VDskZs5TBG-MSugz4xsRWgQ2jM3OtxQjG2owX5SxLPcsrPhhbiI6unPQr73f435Kv4vjrApGjI0oTpvWspQ4SHht0uCumXQrJGyiIcHTIK66WLH_V9ITEhCzcESdebt3mlpavFdlj9pqdpxKy_1cKNuibKr88V24nCtrD7pVhnBh1rc-mZxhUedpDqlXGNu63sOznKL0ALJ0i2fz6Yk9BiZsj6puaxzsg_de-Y1kYpN1wMnNo2S-xOHybden2u-CNQLDYI4mqPa-bDfcYzvz_X-w5Jo_2YTwdH1NGJkKtWOQfCCunYMlS8_RgGM2LqZ5t54VdrwTGJ2Iim7y87PLRMLNnsuGLfbRFuGocbdDCT0uthSW7A-JEInNyrisv5Uq25RGQbWTYmPzXGWikLoqdwvD4Fm5zB3XBKDyIDGay0hy886Vbku7t_U-VVs4iKmfQMfLGcAxC74qJ0dz9jPXn-KtlFITbUAfe6mURCmDpAHVLiNyLuAHt4LRrDA8Y1KSVxObmLs_aMFpx9Cpr-wJRFMs4c32RTQPyip5wNaN3s-AteLpVIfphtf8glTlgxNKvHrjHoBSlpGybRljUvbQR3uMDiRTdEFNbPbqf9HcQs1gPeqnVDfp_YIfGDXDPfO0aSmgSh33mG-fom6LA4DBsUwJfBwkSLyKbjpbsh70a6fV5LBHtcxMcn3RRye4IRkQ0_CcYnlqT]--></g></svg>